# xmcd CD database file generated by Grip 3.2.0
# 
# Track frame offsets:
#       150
#       25097
#       40785
#       62037
#       73247
#       98075
#       109687
#       123070
#       142107
#       161002
#       183627
#       199030
#       219625
#       239390
#       252602
#       268225
#       288442
#       305232
#       321085
# 
# Disc length: 4507 seconds
# 
# Revision: 4
# Processed by: cddbd v1.5.2PL0 Copyright (c) Steve Scherf et al.
# Submitted via: Grip 3.2.0
# 
DISCID=2a119913
DTITLE=John Lee Hooker - Live at Sugar Hill - Volumes 1 and 2
DYEAR=1990
DGENRE=Blues
TTITLE0=I Just Can't Hold on Much Longer
TTITLE1=I'm Gonna Keep on Walking
TTITLE2=T.B. Is Killing Me
TTITLE3=Run On
TTITLE4=This World (No Man's Land)
TTITLE5=I Like to See You Walking
TTITLE6=It's You I Love, Baby
TTITLE7=Driftin' Blues
TTITLE8=You Gonna Miss Me
TTITLE9=You're Nice and Kind to Me Lou Della
TTITLE10=Money (That's What I Want)
TTITLE11=I Want to Get Married
TTITLE12=Matchbox
TTITLE13=Boogie Chillun
TTITLE14=Night Time Is the Right Time
TTITLE15=You Don't Move Me Baby
TTITLE16=You Been Dealin' with the Devil
TTITLE17=My Babe
TTITLE18=Key to the Highway
EXTD=
EXTT0=
EXTT1=
EXTT2=
EXTT3=
EXTT4=
EXTT5=
EXTT6=
EXTT7=
EXTT8=
EXTT9=
EXTT10=
EXTT11=
EXTT12=
EXTT13=
EXTT14=
EXTT15=
EXTT16=
EXTT17=
EXTT18=
PLAYORDER=
